<?xml version="1.0" encoding="UTF-8" standalone="no"?><!DOCTYPE svg PUBLIC "-//W3C//DTD SVG 1.1//EN" "http://www.w3.org/Graphics/SVG/1.1/DTD/svg11.dtd"><svg width="100%" height="100%" viewBox="0 0 104 105" version="1.1" xmlns="http://www.w3.org/2000/svg" xmlns:xlink="http://www.w3.org/1999/xlink" xml:space="preserve" xmlns:serif="http://www.serif.com/" style="fill-rule:evenodd;clip-rule:evenodd;stroke-linejoin:round;stroke-miterlimit:1.41421;"><g><path d="M34.364,62.528c0,5.191 -4.209,9.4 -9.4,9.4c-5.191,0 -9.4,-4.209 -9.4,-9.4c0,-5.191 4.209,-9.4 9.4,-9.4c5.191,0 9.4,4.209 9.4,9.4Z" style="fill:#c44545;fill-rule:nonzero;"/><path d="M73.464,47.528c2.7,-1.6 5.9,-2.5 9.2,-2.5c4.8,0 9.1,1.8 12.4,4.8c0.1,0 0.3,0.1 0.4,0.1c0,0 23,-35.4 -6.5,-21.2c0,0 -33,-45.7 -66.8,-21.8c0,0 5.2,2.8 7,5.3c0,0 -24.9,1.4 -29.1,13.7c0,0 7.3,-0.8 7.2,1.1c0,0 -9.6,1.4 2.2,26c3.3,-5 9,-8.3 15.4,-8.3c5.6,0 10.6,2.5 14,6.4c4.6,-0.8 10.1,-2.5 13.7,-5.8c0.1,0 27.3,-5.8 20.9,2.2Z" style="fill:#c44545;fill-rule:nonzero;"/><path d="M82.664,44.328c-10.2,0 -18.5,8.3 -18.5,18.5c0,10.2 8.3,18.5 18.5,18.5c10.2,0 18.5,-8.3 18.5,-18.5c0,-10.2 -8.3,-18.5 -18.5,-18.5Zm-0.2,33.1c-8,0 -14.6,-6.5 -14.6,-14.6c0,-8 6.5,-14.6 14.6,-14.6c8.1,0 14.6,6.5 14.6,14.6c-0.1,8.1 -6.6,14.6 -14.6,14.6Z" style="fill:#c44545;fill-rule:nonzero;"/><path d="M71.564,77.528l17.4,1.4c0,0 13,19.8 -37,25.5l-12.8,-2c0,-0.1 40.3,-9.7 32.4,-24.9Z" style="fill:#c44545;fill-rule:nonzero;"/></g><path d="M63.957,62.69c0.102,0.045 0.205,0.091 0.307,0.138l1.3,0.8l0.4,3l-1.7,-0.8c-0.102,-0.047 -0.205,-0.093 -0.307,-0.138l0,-3Zm-18.495,-0.605l0,3c-1.15,0.409 -1.798,0.743 -1.798,0.743l0,-3c0,0 0.648,-0.334 1.798,-0.743Zm15.959,-0.354c0.592,0.187 1.189,0.4 1.791,0.644l0,3c-0.602,-0.244 -1.199,-0.457 -1.791,-0.644l0,-3Zm-13.424,-0.397l0,3c-0.663,0.16 -1.263,0.332 -1.791,0.5l0,-3c0.528,-0.168 1.128,-0.34 1.791,-0.5Zm10.888,-0.256c0.589,0.118 1.187,0.261 1.792,0.43l0,3c-0.605,-0.169 -1.203,-0.312 -1.792,-0.43l0,-3Zm-8.352,-0.224l0,3c-0.632,0.088 -1.23,0.194 -1.791,0.312l0,-3c0.561,-0.118 1.159,-0.224 1.791,-0.312Zm5.817,-0.144c0.585,0.054 1.183,0.13 1.791,0.232l0,3c-0.608,-0.102 -1.206,-0.178 -1.791,-0.232l0,-3Zm-3.281,-0.084l0,3c-0.619,0.025 -1.217,0.072 -1.791,0.135l0,-3c0.574,-0.063 1.172,-0.11 1.791,-0.135Zm0.745,-0.018c0.581,-0.007 1.178,0.007 1.791,0.045l0,3c-0.613,-0.038 -1.21,-0.052 -1.791,-0.045l0,-3Z" style="fill:#c44545;fill-rule:nonzero;"/><path d="M81.708,53.476c0.314,-0.031 0.634,-0.048 0.956,-0.048c0.282,0 0.56,0.013 0.835,0.037l0,18.727c-0.275,0.024 -0.553,0.036 -0.835,0.036c-0.322,0 -0.642,-0.016 -0.956,-0.048l0,-18.704Zm2.536,0.084c0.619,0.105 1.218,0.271 1.791,0.491l0,17.555c-0.573,0.22 -1.172,0.385 -1.791,0.49l0,-18.536Zm-3.281,0.022l0,18.493c-0.62,-0.114 -1.22,-0.288 -1.791,-0.517l0,-17.459c0.571,-0.229 1.171,-0.404 1.791,-0.517Zm5.816,0.793c0.642,0.312 1.242,0.696 1.791,1.14l0,14.626c-0.549,0.445 -1.149,0.828 -1.791,1.141l0,-16.907Zm-8.352,0.061l0,16.785c-0.643,-0.325 -1.243,-0.722 -1.791,-1.18l0,-14.425c0.548,-0.458 1.148,-0.855 1.791,-1.18Zm10.888,1.75c0.726,0.727 1.333,1.571 1.791,2.503l0,8.279c-0.458,0.931 -1.065,1.776 -1.791,2.503l0,-13.285Zm-13.424,0.125l0,13.035c-0.737,-0.766 -1.346,-1.657 -1.791,-2.638l0,-7.76c0.445,-0.98 1.054,-1.871 1.791,-2.637Zm15.96,4.516c0.14,0.645 0.213,1.315 0.213,2.001c0,0.687 -0.073,1.357 -0.213,2.002l0,-4.003Zm-18.495,0.688l0,2.627c-0.06,-0.429 -0.092,-0.868 -0.092,-1.314c0,-0.445 0.032,-0.884 0.092,-1.313Z" style="fill:#c44545;fill-rule:nonzero;"/><path d="M23.384,77.073c0.422,0.037 0.849,0.055 1.28,0.055c0.171,0 0.342,-0.003 0.511,-0.008l0,3.907c-0.07,0.001 -0.14,0.001 -0.211,0.001c-0.532,0 -1.059,-0.022 -1.58,-0.067l0,-3.888Zm4.327,-0.259l0,4.011c-0.589,0.088 -1.186,0.148 -1.791,0.179l0,-3.928c0.609,-0.051 1.206,-0.139 1.791,-0.262Zm-6.863,-0.193c0.584,0.159 1.182,0.282 1.791,0.367l0,3.895c-0.606,-0.076 -1.204,-0.182 -1.791,-0.316l0,-3.946Zm9.399,-0.587l0,4.226c-0.586,0.175 -1.183,0.321 -1.791,0.438l0,-4.061c0.614,-0.163 1.212,-0.365 1.791,-0.603Zm-11.935,-0.363c0.578,0.28 1.176,0.523 1.792,0.726l0,3.983c-0.611,-0.166 -1.208,-0.363 -1.792,-0.588l0,-4.121Zm14.471,-0.986l0,4.609c-0.582,0.272 -1.179,0.515 -1.791,0.726l0,-4.316c0.623,-0.298 1.221,-0.639 1.791,-1.019Zm-17.006,-0.582c0.566,0.435 1.164,0.83 1.791,1.18l0,4.202c-0.615,-0.27 -1.213,-0.572 -1.791,-0.904l0,-4.478Zm19.541,-1.564l0,5.313c-0.574,0.39 -1.172,0.748 -1.791,1.072l0,-4.77c0.642,-0.488 1.241,-1.028 1.791,-1.615Zm-22.077,-0.927c0.541,0.678 1.14,1.306 1.791,1.878l0,4.639c-0.623,-0.398 -1.221,-0.832 -1.791,-1.3l0,-5.217Zm24.613,-2.787l0,6.961c-0.563,0.548 -1.162,1.061 -1.791,1.534l0,-5.638c0.702,-0.874 1.304,-1.832 1.791,-2.857Zm-27.149,-2.01c0.416,1.354 1.024,2.623 1.791,3.776l0,5.592c-0.64,-0.584 -1.238,-1.213 -1.791,-1.881l0,-7.487Zm27.894,-16.777c0.654,0.713 1.254,1.479 1.791,2.288l0,20.405c-0.537,0.809 -1.137,1.574 -1.791,2.288l0,-8.096c0.433,-1.385 0.665,-2.861 0.665,-4.395c0,-1.523 -0.233,-2.989 -0.665,-4.367l0,-8.123Zm-28.639,1.68l0,21.621c-0.69,-0.955 -1.291,-1.978 -1.791,-3.057l0,-15.508c0.5,-1.078 1.101,-2.101 1.791,-3.056Zm31.175,1.83c0.786,1.411 1.394,2.935 1.791,4.54l0,8.881c-0.397,1.605 -1.005,3.129 -1.791,4.54l0,-17.961Zm-33.711,3.094l0,11.773c-0.622,-1.85 -0.96,-3.83 -0.96,-5.887c0,-2.056 0.338,-4.036 0.96,-5.886Zm5.072,-7.769l0,5.598c-0.768,1.157 -1.375,2.428 -1.791,3.78l0,-7.496c0.553,-0.668 1.151,-1.297 1.791,-1.882Zm23.567,-1.136c0.629,0.473 1.228,0.986 1.791,1.534l0,6.995c-0.487,-1.022 -1.09,-1.978 -1.791,-2.852l0,-5.677Zm-21.031,-0.81l0,4.638c-0.651,0.574 -1.251,1.204 -1.791,1.883l0,-5.22c0.57,-0.468 1.168,-0.902 1.791,-1.301Zm18.495,-0.795c0.619,0.325 1.217,0.683 1.791,1.073l0,5.35c-0.551,-0.587 -1.15,-1.13 -1.791,-1.62l0,-4.803Zm-15.959,-0.56l0,4.198c-0.627,0.351 -1.226,0.746 -1.791,1.182l0,-4.476c0.578,-0.333 1.176,-0.634 1.791,-0.904Zm13.424,-0.536c0.612,0.212 1.209,0.455 1.791,0.727l0,4.638c-0.571,-0.383 -1.169,-0.727 -1.791,-1.027l0,-4.338Zm-10.888,-0.36l0,3.98c-0.617,0.203 -1.215,0.446 -1.792,0.726l0,-4.117c0.584,-0.225 1.181,-0.422 1.792,-0.589Zm8.352,-0.317c0.608,0.116 1.205,0.263 1.791,0.438l0,4.243c-0.58,-0.241 -1.178,-0.446 -1.791,-0.611l0,-4.07Zm-5.817,-0.185l0,3.894c-0.61,0.085 -1.208,0.207 -1.791,0.365l0,-3.943c0.587,-0.134 1.185,-0.24 1.791,-0.316Zm3.281,-0.121c0.605,0.031 1.202,0.091 1.791,0.179l0,4.017c-0.585,-0.125 -1.183,-0.215 -1.791,-0.267l0,-3.929Zm-2.536,0.042c0.521,-0.044 1.048,-0.067 1.58,-0.067c0.071,0 0.141,0.001 0.211,0.002l0,3.907c-0.169,-0.006 -0.34,-0.009 -0.511,-0.009c-0.431,0 -0.858,0.019 -1.28,0.056l0,-3.889Z" style="fill:#c44545;fill-rule:nonzero;"/><g id="Layer_1"><path d="M34.3,62.518c0,5.191 -4.209,9.4 -9.4,9.4c-5.191,0 -9.4,-4.209 -9.4,-9.4c0,-5.191 4.209,-9.4 9.4,-9.4c5.191,0 9.4,4.209 9.4,9.4Z" style="fill:#2b8765;fill-rule:nonzero;"/><path d="M73.4,47.518c2.7,-1.6 5.9,-2.5 9.2,-2.5c4.8,0 9.1,1.8 12.4,4.8c0.1,0 0.3,0.1 0.4,0.1c0,0 23,-35.4 -6.5,-21.2c0,0 -33,-45.7 -66.8,-21.8c0,0 5.2,2.8 7,5.3c0,0 -24.9,1.4 -29.1,13.7c0,0 7.3,-0.8 7.2,1.1c0,0 -9.6,1.4 2.2,26c3.3,-5 9,-8.3 15.4,-8.3c5.6,0 10.6,2.5 14,6.4c4.6,-0.8 10.1,-2.5 13.7,-5.8c0.1,0 27.3,-5.8 20.9,2.2Z" style="fill:#2b8765;fill-rule:nonzero;"/><path d="M82.6,44.318c-10.2,0 -18.5,8.3 -18.5,18.5c0,10.2 8.3,18.5 18.5,18.5c10.2,0 18.5,-8.3 18.5,-18.5c0,-10.2 -8.3,-18.5 -18.5,-18.5Zm-0.2,33.1c-8,0 -14.6,-6.5 -14.6,-14.6c0,-8 6.5,-14.6 14.6,-14.6c8.1,0 14.6,6.5 14.6,14.6c-0.1,8.1 -6.6,14.6 -14.6,14.6Z" style="fill:#2b8765;fill-rule:nonzero;"/><path d="M71.5,77.518l17.4,1.4c0,0 13,19.8 -37,25.5l-12.8,-2c0,-0.1 40.3,-9.7 32.4,-24.9Z" style="fill:#2b8765;fill-rule:nonzero;"/></g></svg>